<?xml version="1.0" standalone="no"?>
<!DOCTYPE svg PUBLIC "-//W3C//DTD SVG 20010904//EN"
 "http://www.w3.org/TR/2001/REC-SVG-20010904/DTD/svg10.dtd">
<svg version="1.0" xmlns="http://www.w3.org/2000/svg"
 width="700.000000pt" height="700.000000pt" viewBox="0 0 700.000000 700.000000"
 preserveAspectRatio="xMidYMid meet">
<metadata>
Created by potrace 1.14, written by Peter Selinger 2001-2017
</metadata>
<g transform="translate(0.000000,700.000000) scale(0.100000,-0.100000)"
fill="#000000" stroke="none">
<path d="M3298 6995 c-2 -1 -48 -6 -103 -9 -54 -4 -101 -9 -105 -10 -3 -2 -34
-7 -69 -10 -35 -4 -85 -11 -110 -16 -56 -12 -96 -19 -136 -26 -115 -20 -391
-103 -565 -169 -106 -41 -315 -142 -440 -213 -89 -50 -305 -189 -339 -218 -9
-8 -53 -42 -98 -77 -150 -116 -412 -369 -517 -498 -415 -508 -676 -1083 -771
-1699 -3 -19 -7 -46 -10 -60 -2 -14 -7 -52 -11 -85 -4 -33 -9 -73 -11 -90 -2
-16 -6 -148 -7 -291 -3 -226 0 -286 20 -438 12 -97 28 -200 34 -229 5 -29 12
-61 14 -73 21 -111 96 -379 125 -449 5 -11 30 -75 55 -142 66 -170 249 -525
308 -598 5 -5 38 -53 74 -105 37 -52 103 -140 148 -195 138 -171 292 -326 506
-509 52 -44 218 -165 300 -218 288 -186 594 -329 905 -420 165 -49 199 -58
225 -62 14 -2 74 -14 134 -25 59 -12 136 -24 169 -27 34 -3 64 -7 67 -9 29
-18 533 -26 710 -12 109 9 116 10 310 42 184 31 170 28 303 66 397 112 691
246 1023 466 120 79 318 230 383 291 106 100 228 222 281 282 36 40 72 80 80
89 8 9 31 37 50 61 86 111 105 137 145 196 22 33 42 61 45 64 12 11 67 101
117 190 251 442 398 909 451 1435 19 194 4 661 -28 830 -5 28 -12 66 -15 85
-58 375 -227 831 -443 1190 -92 153 -282 417 -362 501 -165 175 -264 269 -430
413 -28 25 -138 106 -290 213 -126 90 -491 278 -657 339 -331 121 -527 167
-933 220 -47 6 -526 14 -532 9z"/>
</g>
</svg>
