<?xml version="1.0" encoding="iso-8859-1"?>
<!-- Generator: Adobe Illustrator 19.0.0, SVG Export Plug-In . SVG Version: 6.00 Build 0)  -->
<svg version="1.1" id="Layer_1" xmlns="http://www.w3.org/2000/svg" xmlns:xlink="http://www.w3.org/1999/xlink" x="0px" y="0px"
	 viewBox="0 0 512 512" style="enable-background:new 0 0 512 512;" xml:space="preserve">
<g>
	<g>
		<circle cx="221.705" cy="188.818" r="39.606"/>
	</g>
</g>
<g>
	<g>
		<path d="M172.427,243.363c-0.019,0-0.038,0-0.057,0l-53.602,0.156c-0.935-7.916-9.069-76.831-10.068-85.287
			c-1.742-14.763-15.198-25.278-29.939-23.409l-24.42,3.096c-12.987,1.646-22.838,12.426-23.364,25.469l25.251-9.195L7.444,189.202
			c-4.137,2.969-6.612,7.733-6.661,12.826c-0.155,15.856-0.629,64.426-0.782,80.078c-0.086,8.824,6.998,16.048,15.823,16.135
			c0.053,0,0.106,0,0.16,0c8.752,0,15.889-7.052,15.975-15.823c0.082-8.373,0.619-63.348,0.703-71.976l49.971-35.861l-43.677,50.222
			l4.544,33.209c1.337,9.769,7.995,18.208,17.608,21.6c0,6.981,0,153.977,0,166.208c0,10.59,8.585,19.175,19.175,19.175
			s19.175-8.585,19.175-19.175c0-5.357,0-158.56,0-163.894l44.728-0.131l-25.886,65.417c-3.896,9.847,0.927,20.988,10.774,24.886
			c9.851,3.898,20.99-0.931,24.886-10.774l36.3-91.731C195.231,257.026,185.955,243.363,172.427,243.363z"/>
	</g>
</g>
<g>
	<g>
		<circle cx="80.869" cy="86.611" r="39.606"/>
	</g>
</g>
<g>
	<g>
		<circle cx="431.132" cy="86.611" r="39.606"/>
	</g>
</g>
<g>
	<g>
		<path d="M511.216,202.028c-0.05-5.093-2.524-9.857-6.661-12.826l-48.783-35.009l25.251,9.196c-0.221-5.478-2.114-10.8-5.498-15.21
			c-3.698-4.82-8.911-8.19-14.744-9.649l-27.542-3.707c-7.08-0.897-14.226,1.07-19.847,5.466
			c-5.622,4.396-9.256,10.855-10.092,17.943l-1.622,13.736l-21.801,17.176l-61.411,6.081c-8.782,0.87-15.196,8.695-14.327,17.477
			c0.871,8.789,8.701,15.197,17.477,14.327l66.057-6.542c3.5-0.347,6.185-1.673,8.709-3.661l-6.514,55.184l-46.834,45.727
			c-2.87,2.803-4.79,6.436-5.487,10.387l-16.857,95.501c-1.841,10.428,5.121,20.375,15.55,22.216
			c10.408,1.84,20.373-5.106,22.216-15.55l15.784-89.424l40.705-39.742v144.696c0,10.59,8.585,19.175,19.175,19.175
			s19.175-8.585,19.175-19.175v-167.19c8.348-3.892,13.987-11.707,15.206-20.619l4.544-33.209l-43.675-50.221l49.97,35.861
			c0.084,8.615,0.622,63.6,0.703,71.976c0.085,8.772,7.223,15.824,15.975,15.823c0.052,0,0.106,0,0.16,0
			c8.825-0.086,15.908-7.31,15.823-16.135C511.638,245.267,511.576,238.851,511.216,202.028z"/>
	</g>
</g>
<g>
</g>
<g>
</g>
<g>
</g>
<g>
</g>
<g>
</g>
<g>
</g>
<g>
</g>
<g>
</g>
<g>
</g>
<g>
</g>
<g>
</g>
<g>
</g>
<g>
</g>
<g>
</g>
<g>
</g>
</svg>
